<?xml version="1.0" encoding="UTF-8"?>
<svg xmlns="http://www.w3.org/2000/svg" viewBox="0 0 285.61 42.16">
  <defs>
    <style>
      .cls-1 {
        fill: #fff;
      }

      .cls-2 {
        isolation: isolate;
      }

      .cls-3 {
        fill: #0c62fb;
      }
    </style>
  </defs>
  <g id="menlocloud_copy" class="cls-2">
    <g id="menlocloud_copy-2" data-name="menlocloud_copy">
      <path class="cls-1" d="M42.69,37.81c-.16-.61-.23-1.58-.23-2.91l-.03-2.22v-9.92c0-2.07-.74-3.74-2.21-5.02-1.47-1.28-3.38-1.92-5.73-1.92-1.74,0-3.36.35-4.86,1.05-1.5.7-3,1.81-4.48,3.31-.96-1.41-1.81-2.39-2.55-2.96-1.23-.94-2.76-1.41-4.6-1.41-1.66,0-3.26.35-4.79,1.05-1.53.7-2.92,1.71-4.15,3.02-.1-1.35-.32-2.7-.68-4.07l-8.05,1v.62c.88.06,1.55.21,2.02.45s.87.64,1.2,1.18c.33.51.55,1.16.64,1.97.1.81.15,2.22.15,4.22v7.22c0,1.71-.04,3.02-.13,3.93-.09.91-.24,1.58-.45,2.03-.31.68-.72,1.16-1.23,1.45-.51.28-1.35.5-2.52.66v.62h12.95v-.62c-1.46-.27-2.47-.67-3.02-1.2-.45-.41-.75-.92-.91-1.54-.16-.61-.23-1.59-.23-2.91l-.03-2.17v-5.35c0-1.78.11-3.22.34-4.35.22-1.12.6-2.08,1.13-2.88.56-.9,1.33-1.61,2.31-2.14.97-.53,2.02-.79,3.13-.79.97,0,1.85.2,2.63.6.78.4,1.38.95,1.81,1.65.41.66.69,1.53.83,2.59.15,1.06.22,2.74.22,5.02v5.41c0,1.7-.04,3-.13,3.91s-.24,1.58-.45,2.03c-.33.68-.75,1.17-1.25,1.45s-1.33.5-2.5.66v.62h12.95v-.62c-1.48-.27-2.5-.67-3.05-1.2-.43-.41-.72-.92-.88-1.54-.16-.61-.23-1.59-.23-2.91l-.03-2.22v-5.65c0-3.26.48-5.66,1.43-7.2,1.09-1.79,2.84-2.69,5.26-2.69,2.24,0,3.82.83,4.73,2.49.39.7.65,1.55.79,2.55.14,1,.2,2.57.2,4.74v5.59c0,1.7-.04,3-.13,3.91s-.24,1.58-.45,2.03c-.33.68-.75,1.17-1.25,1.45-.5.28-1.33.5-2.5.66v.62h12.95v-.62c-1.46-.27-2.48-.67-3.05-1.2-.43-.41-.72-.92-.88-1.54ZM69.53,37.85c-.62.63-1.41,1.11-2.35,1.46s-1.94.53-2.99.53c-1.42,0-2.78-.31-4.07-.94-1.29-.62-2.38-1.48-3.26-2.58-.86-1.07-1.53-2.42-2.03-4.04-.5-1.62-.74-3.28-.74-4.98,0-.43.04-1.12.12-2.08h17.17c0-2.46-.71-4.51-2.14-6.15-.92-1.05-2.04-1.86-3.37-2.42-1.33-.56-2.77-.83-4.34-.83-2.93,0-5.54.91-7.82,2.72-3.14,2.5-4.72,5.95-4.72,10.34,0,3.22.83,5.94,2.49,8.14,1.19,1.58,2.65,2.75,4.37,3.52,1.72.76,3.78,1.14,6.18,1.14,2.77,0,5-.58,6.67-1.74,1.67-1.16,2.76-2.89,3.27-5.17l-.62-.21c-.51,1.5-1.11,2.6-1.81,3.28ZM56.61,18.63c1.25-1.45,2.72-2.17,4.39-2.17.99,0,1.92.28,2.8.83.87.56,1.57,1.31,2.1,2.27.58,1.05.94,2.56,1.08,4.51h-12.6c.23-2.19.98-4,2.23-5.45ZM100.96,37.81c-.16-.61-.23-1.58-.23-2.91v-12.41c0-2.13-.75-3.77-2.26-4.92-1.52-1.17-3.54-1.76-6.04-1.76-3.34,0-6.22,1.22-8.64,3.65v-.47c0-.98-.14-2.04-.41-3.18l-8.02,1.05v.62c.88.06,1.55.21,2.02.45.47.24.87.64,1.2,1.18.33.51.55,1.16.64,1.97.1.81.15,2.21.15,4.21v7.2c0,1.71-.04,3.02-.13,3.92-.09.9-.24,1.58-.45,2.03-.31.68-.72,1.16-1.23,1.44-.51.28-1.35.5-2.52.66v.62h12.95v-.62c-1.46-.27-2.47-.67-3.02-1.2-.45-.41-.75-.92-.91-1.54-.16-.61-.23-1.59-.23-2.91l-.03-2.17v-5.73c0-2.28.09-3.92.28-4.9s.57-1.87,1.15-2.65c.55-.74,1.29-1.33,2.24-1.76.94-.43,1.96-.64,3.05-.64,1.01,0,1.94.19,2.78.57.84.38,1.48.91,1.93,1.59.41.61.69,1.4.83,2.4.15.99.22,2.56.22,4.68v6.2c0,1.7-.04,3-.13,3.91-.09.91-.24,1.58-.45,2.03-.31.68-.72,1.17-1.23,1.45-.51.28-1.35.5-2.52.66v.62h12.95v-.62c-1.46-.27-2.47-.67-3.02-1.2-.45-.41-.75-.92-.91-1.54ZM115.28,37.81c-.16-.61-.23-1.59-.23-2.91l-.03-2.23V0l-8.44,1.05v.64c.88.06,1.55.21,2.02.44.47.23.87.62,1.2,1.17.33.51.55,1.17.64,1.99.1.82.15,2.22.15,4.21v22.96c0,1.72-.04,3.03-.13,3.93-.09.91-.24,1.58-.45,2.03-.31.68-.72,1.17-1.23,1.45-.51.28-1.35.5-2.52.66v.62h12.95v-.62c-1.46-.27-2.47-.67-3.02-1.2-.45-.41-.75-.92-.91-1.54ZM145.72,20.33c-2.83-3.01-6.23-4.51-10.2-4.51s-7.37,1.5-10.22,4.51c-2.34,2.48-3.52,5.3-3.52,8.47,0,1.52.29,3.01.86,4.45.58,1.45,1.4,2.75,2.48,3.93,2.75,3.01,6.22,4.51,10.4,4.51s7.64-1.5,10.37-4.51c2.23-2.44,3.34-5.22,3.34-8.35s-1.17-6-3.52-8.5ZM143.2,33.6c-.47,1.65-1.08,3.02-1.85,4.11-.72,1.05-1.58,1.87-2.58,2.46s-2.02.88-3.08.88c-2.48,0-4.58-1.32-6.3-3.95-1.52-2.36-2.29-5.24-2.29-8.63s.81-6.19,2.43-8.52c1.6-2.32,3.51-3.48,5.71-3.48,2.32,0,4.29,1.1,5.89,3.31.84,1.17,1.51,2.57,2.01,4.2s.75,3.24.75,4.84-.23,3.14-.7,4.78Z"/>
    </g>
  </g>
  <g id="menlocloud_copy_2" class="cls-2">
    <g id="menlocloud_copy_2-2" data-name="menlocloud_copy_2">
      <path class="cls-3" d="M162.21,22.76c.68-1.29,1.39-2.36,2.13-3.21.74-.85,1.59-1.56,2.55-2.12,1.09-.64,2.21-.97,3.36-.97.88,0,1.58.22,2.1.67.27.23.46.51.57.82.11.31.23.9.35,1.76.28,1.86,1.05,2.78,2.32,2.78.59,0,1.12-.21,1.6-.63.48-.42.78-.94.89-1.57.17-.94-.17-1.8-1.01-2.58-1.38-1.27-3.48-1.9-6.31-1.9-2.05,0-4,.36-5.86,1.08-1.86.72-3.5,1.77-4.93,3.13-1.27,1.19-2.35,2.63-3.25,4.31-.9,1.68-1.5,3.38-1.81,5.1-.62,3.52-.04,6.43,1.74,8.73,1.83,2.34,4.72,3.52,8.67,3.52,2.46,0,4.48-.46,6.04-1.38,1.57-.92,2.88-2.41,3.93-4.48l-.55-.21c-.81,1.41-1.59,2.42-2.32,3.05-1.44,1.19-3.09,1.79-4.96,1.79-2.26,0-4.08-.88-5.44-2.64-.88-1.11-1.48-2.5-1.81-4.16-.33-1.66-.34-3.36-.04-5.1.33-1.89,1.02-3.83,2.05-5.8ZM187.06,32.67L192.82,0l-8.62,1.05-.11.64c.87.06,1.52.21,1.94.44.43.23.76.62.99,1.17.24.51.34,1.17.29,1.99-.05.82-.25,2.22-.6,4.21l-4.05,22.96c-.3,1.72-.58,3.03-.83,3.93-.25.91-.52,1.58-.81,2.03-.43.68-.93,1.17-1.49,1.45s-1.44.5-2.64.66l-.11.62h12.95l.11-.62c-1.42-.27-2.35-.67-2.81-1.2-.38-.41-.59-.92-.64-1.54-.05-.61.05-1.59.28-2.91l.36-2.23ZM210.54,15.82c-3.97,0-7.64,1.5-11.02,4.51-2.78,2.48-4.45,5.3-5.01,8.47-.27,1.52-.24,3.01.08,4.45.32,1.45.92,2.75,1.78,3.93,2.22,3.01,5.42,4.51,9.6,4.51s7.9-1.5,11.17-4.51c2.66-2.44,4.26-5.22,4.81-8.35.56-3.16-.11-6-2.02-8.5-2.3-3.01-5.43-4.51-9.4-4.51ZM216.63,28.81c-.27,1.54-.79,3.14-1.55,4.78-.76,1.65-1.62,3.02-2.57,4.11-.91,1.05-1.91,1.87-3.01,2.46-1.1.59-2.18.88-3.23.88-2.48,0-4.35-1.32-5.6-3.95-1.11-2.36-1.36-5.24-.76-8.63.59-3.36,1.9-6.19,3.93-8.52,2.01-2.32,4.12-3.48,6.33-3.48,2.32,0,4.09,1.1,5.31,3.31.63,1.17,1.06,2.57,1.27,4.2.21,1.63.18,3.24-.11,4.84ZM251.89,16.26h-8.61l-.11.64c1.44.25,2.39.64,2.84,1.17.37.43.58.95.62,1.55.04.6-.06,1.57-.29,2.9l-.35,2.17-1.01,5.73c-.4,2.28-.78,3.92-1.14,4.92-.36,1-.89,1.87-1.59,2.63-.68.74-1.53,1.33-2.56,1.76-1.03.43-2.09.64-3.18.64-.99,0-1.86-.19-2.59-.57-.73-.38-1.25-.9-1.56-1.57-.28-.64-.4-1.47-.37-2.48.03-1.01.23-2.55.6-4.64l2.62-14.85h-8.61l-.11.64c1.42.25,2.37.64,2.84,1.17.35.43.56.95.61,1.55.05.61-.04,1.57-.28,2.9l-.36,2.22-1.8,10.18c-.38,2.15.05,3.8,1.29,4.97,1.27,1.19,3.13,1.78,5.57,1.78,3.34,0,6.45-1.22,9.32-3.66-.22,1.25-.31,2.47-.26,3.66l8.25-1.08.11-.62c-.87-.06-1.52-.21-1.94-.45-.43-.24-.77-.64-1.02-1.19-.22-.51-.32-1.17-.28-1.97.04-.81.23-2.22.58-4.23l2.8-15.89ZM279.86,38.76c-.54-.94-.61-2.51-.22-4.71L285.61.15l-9.2,1.14-.12.7c1.63,0,2.72.47,3.26,1.4.54.93.63,2.46.25,4.58l-1.91,10.83c-1.2-1.13-2.3-1.91-3.27-2.34-.98-.43-2.21-.64-3.69-.64-3.06,0-5.87.94-8.42,2.81-1.62,1.21-2.98,2.73-4.08,4.56-1.1,1.83-1.84,3.81-2.22,5.96-.36,2.03-.33,3.9.09,5.61.42,1.71,1.2,3.13,2.35,4.26,1.79,1.78,4.17,2.67,7.14,2.67,1.46,0,2.87-.21,4.22-.62,1.35-.41,2.83-1.08,4.44-2.02-.19,1.09-.28,2.13-.26,3.11l8.78-1.26.13-.73c-1.62,0-2.7-.47-3.24-1.4ZM276.19,28.51c-.46,2.6-.93,4.58-1.4,5.96s-1.09,2.53-1.84,3.47c-.72.9-1.59,1.6-2.59,2.11-1,.51-2.01.76-3.02.76-2.12,0-3.73-1-4.84-2.99-.63-1.15-1.05-2.53-1.25-4.15-.2-1.61-.16-3.26.14-4.94.3-1.72.86-3.39,1.66-5.01.8-1.62,1.76-3.02,2.88-4.19,1.86-1.95,3.83-2.93,5.92-2.93.93,0,1.8.22,2.61.67.81.45,1.41,1.05,1.8,1.79.45.86.67,1.97.67,3.33,0,1.36-.25,3.39-.73,6.11Z"/>
    </g>
  </g>
</svg>