<svg width="70" height="70" viewBox="0 0 70 70" fill="none" xmlns="http://www.w3.org/2000/svg">
<path d="M60.8758 35.0021C61.495 34.4861 62.0988 33.9391 62.6819 33.356C71.3097 24.728 72.476 11.9048 65.2878 4.71653C58.0945 -2.47689 45.2714 -1.31067 36.6435 7.3173C36.0604 7.90041 35.5134 8.50416 34.9974 9.12339C34.4814 8.50416 33.9344 7.90041 33.3513 7.3173C24.7286 -1.31067 11.9055 -2.47689 4.71737 4.71653C-2.47595 11.9048 -1.30975 24.728 7.31811 33.356C7.90121 33.9391 8.50495 34.4861 9.12418 35.0021C8.50495 35.5182 7.90121 36.0651 7.31811 36.6483C-1.30975 45.2762 -2.47595 58.0995 4.71221 65.2877C11.9004 72.476 24.7235 71.3098 33.3513 62.6818C33.9344 62.0987 34.4814 61.4949 34.9974 60.8757C35.5134 61.4949 36.0604 62.0987 36.6435 62.6818C45.2714 71.3098 58.0945 72.476 65.2826 65.2877C72.4708 58.0995 71.3046 45.2762 62.6767 36.6483C62.0988 36.06 61.495 35.513 60.8758 35.0021ZM35.0026 48.4601C27.5667 48.4601 21.5396 42.4329 21.5396 34.997C21.5396 27.561 27.5667 21.5338 35.0026 21.5338C42.4384 21.5338 48.4655 27.561 48.4655 34.997C48.4604 42.4329 42.4333 48.4601 35.0026 48.4601Z" fill="black"/>
</svg>
