<svg width="146" height="25" viewBox="0 0 146 25" fill="none" xmlns="http://www.w3.org/2000/svg">
<g clip-path="url(#clip0_139_4)">
<path d="M25.345 9.65889H15.662L12.6813 0.452148L9.68295 9.65889L0 9.64125L7.83102 15.3381L4.83265 24.5449L12.6637 18.848L20.4947 24.5449L17.514 15.3381L25.345 9.65889Z" fill="#FF9B04"/>
<path d="M18.1845 17.4191L17.5143 15.3379L12.6816 18.8477L18.1845 17.4191Z" fill="#FF9B04"/>
<path d="M55.509 9.65889H45.8261L42.8454 0.452148L39.847 9.65889L30.1641 9.64125L37.9951 15.3381L34.9967 24.5449L42.8277 18.848L50.6588 24.5449L47.678 15.3381L55.509 9.65889Z" fill="#FF9B04"/>
<path d="M48.3486 17.4191L47.6784 15.3379L42.8457 18.8477L48.3486 17.4191Z" fill="#FF9B04"/>
<path d="M85.6712 9.65889H75.9883L73.0076 0.452148L70.0092 9.65889L60.3262 9.64125L68.1573 15.3381L65.1589 24.5449L72.9899 18.848L80.8209 24.5449L77.8402 15.3381L85.6712 9.65889Z" fill="#FF9B04"/>
<path d="M78.5127 17.4191L77.8424 15.3379L73.0098 18.8477L78.5127 17.4191Z" fill="#FF9B04"/>
<path d="M115.835 9.65889H106.152L103.172 0.452148L100.173 9.65889L90.4902 9.64125L98.3212 15.3381L95.3229 24.5449L103.154 18.848L110.985 24.5449L108.004 15.3381L115.835 9.65889Z" fill="#FF9B04"/>
<path d="M108.675 17.4191L108.005 15.3379L103.172 18.8477L108.675 17.4191Z" fill="#FF9B04"/>
<path d="M145.999 9.65889H136.316L133.336 0.452148L130.337 9.65889L120.654 9.64125L128.485 15.3381L125.487 24.5449L133.318 18.848L141.149 24.5449L138.168 15.3381L145.999 9.65889Z" fill="#FF9B04"/>
<path d="M138.841 17.4191L138.171 15.3379L133.338 18.8477L138.841 17.4191Z" fill="#FF9B04"/>
</g>
<defs>
<clipPath id="clip0_139_4">
<rect width="146" height="25" fill="white"/>
</clipPath>
</defs>
</svg>
